<svg width="202" height="172" viewBox="0 0 202 172" fill="none" xmlns="http://www.w3.org/2000/svg">
<path d="M100.727 8.62295e-06C91.9121 -0.00570434 83.3285 2.82748 76.2432 8.08146C69.158 13.3354 63.9465 20.7319 61.3777 29.1793L60.9232 30.697C60.6093 31.6586 60.4905 32.6734 60.5738 33.6816C60.6571 34.6899 60.9408 35.6713 61.4083 36.5682C61.8758 37.465 62.5176 38.2591 63.296 38.9038C64.0744 39.5485 64.9736 40.0308 65.9407 40.3222C66.9079 40.6137 67.9235 40.7085 68.9277 40.601C69.932 40.4935 70.9046 40.1859 71.7885 39.6963C72.6723 39.2068 73.4495 38.5451 74.0743 37.7502C74.6992 36.9553 75.159 36.0433 75.4268 35.0678L75.8813 33.5501C77.5124 28.2258 80.807 23.5669 85.2799 20.2592C89.7528 16.9514 95.1677 15.1698 100.727 15.1765C114.756 15.1765 126.25 26.5791 126.25 40.4706C126.25 47.179 123.59 53.6127 118.854 58.3562C114.119 63.0998 107.697 65.7647 101 65.7647H7.575C5.56599 65.7647 3.63925 66.5642 2.21867 67.9873C0.798077 69.4103 0 71.3404 0 73.353C0 75.3655 0.798077 77.2956 2.21867 78.7186C3.63925 80.1417 5.56599 80.9412 7.575 80.9412H101C111.715 80.9412 121.991 76.6773 129.567 69.0876C137.144 61.4979 141.4 51.2041 141.4 40.4706C141.4 18.0398 122.957 8.62295e-06 100.727 8.62295e-06ZM172.417 60.7059C159.641 60.7059 148.329 69.0024 144.309 81.0727C143.674 82.9833 143.823 85.0682 144.722 86.8689C145.622 88.6695 147.199 90.0384 149.106 90.6744C151.014 91.3103 153.095 91.1613 154.892 90.26C156.69 89.3587 158.056 87.779 158.691 85.8685C159.649 82.9747 161.488 80.4546 163.95 78.6631C166.413 76.8717 169.374 75.8991 172.417 75.8824C180.386 75.8824 186.85 82.3577 186.85 90.3506V91.0588C186.85 95.0839 185.254 98.9441 182.413 101.79C179.571 104.636 175.718 106.235 171.7 106.235H7.575C5.56599 106.235 3.63925 107.035 2.21867 108.458C0.798077 109.881 0 111.811 0 113.824C0 115.836 0.798077 117.766 2.21867 119.189C3.63925 120.612 5.56599 121.412 7.575 121.412H133.825C137.173 121.412 140.385 122.744 142.752 125.116C145.12 127.488 146.45 130.705 146.45 134.059C146.45 137.413 145.12 140.63 142.752 143.002C140.385 145.373 137.173 146.706 133.825 146.706H132.462C128.422 146.706 124.735 144.419 122.917 140.807C121.976 139.082 120.403 137.79 118.529 137.204C116.656 136.618 114.629 136.782 112.874 137.664C111.12 138.545 109.776 140.074 109.124 141.929C108.473 143.783 108.566 145.819 109.383 147.606C111.533 151.894 114.829 155.499 118.904 158.019C122.978 160.54 127.672 161.877 132.462 161.882H133.825C138.579 161.883 143.254 160.662 147.402 158.335C151.55 156.007 155.032 152.653 157.515 148.591C159.999 144.53 161.4 139.898 161.584 135.139C161.769 130.381 160.731 125.654 158.57 121.412H171.7C179.736 121.412 187.443 118.214 193.125 112.522C198.808 106.829 202 99.1089 202 91.0588V90.3506C202 82.4883 198.882 74.9481 193.332 69.3886C187.783 63.8292 180.266 60.7059 172.417 60.7059ZM30.3 10.1177C30.3 12.801 29.2359 15.3745 27.3418 17.2719C25.4477 19.1693 22.8787 20.2353 20.2 20.2353C17.5213 20.2353 14.9523 19.1693 13.0582 17.2719C11.1641 15.3745 10.1 12.801 10.1 10.1177C10.1 7.43429 11.1641 4.86083 13.0582 2.9634C14.9523 1.06597 17.5213 8.62295e-06 20.2 8.62295e-06C22.8787 8.62295e-06 25.4477 1.06597 27.3418 2.9634C29.2359 4.86083 30.3 7.43429 30.3 10.1177ZM70.7 172C73.3787 172 75.9477 170.934 77.8418 169.037C79.7359 167.139 80.8 164.566 80.8 161.882C80.8 159.199 79.7359 156.626 77.8418 154.728C75.9477 152.831 73.3787 151.765 70.7 151.765C68.0213 151.765 65.4523 152.831 63.5582 154.728C61.6641 156.626 60.6 159.199 60.6 161.882C60.6 164.566 61.6641 167.139 63.5582 169.037C65.4523 170.934 68.0213 172 70.7 172ZM181.8 20.2353C181.8 22.9187 180.736 25.4921 178.842 27.3896C176.948 29.287 174.379 30.353 171.7 30.353C169.021 30.353 166.452 29.287 164.558 27.3896C162.664 25.4921 161.6 22.9187 161.6 20.2353C161.6 17.5519 162.664 14.9785 164.558 13.081C166.452 11.1836 169.021 10.1177 171.7 10.1177C174.379 10.1177 176.948 11.1836 178.842 13.081C180.736 14.9785 181.8 17.5519 181.8 20.2353Z" fill="#800000"/>
</svg>
