<svg width="96" height="82" viewBox="0 0 96 82" fill="none" xmlns="http://www.w3.org/2000/svg">
<path d="M47.8704 4.11094e-06C43.681 -0.00271951 39.6016 1.34798 36.2344 3.85279C32.8672 6.35759 30.3904 9.88381 29.1696 13.9111L28.9536 14.6346C28.8044 15.093 28.7479 15.5768 28.7875 16.0575C28.8271 16.5382 28.962 17.0061 29.1842 17.4337C29.4063 17.8612 29.7114 18.2398 30.0813 18.5472C30.4512 18.8545 30.8785 19.0844 31.3382 19.2234C31.7978 19.3623 32.2805 19.4075 32.7577 19.3563C33.235 19.305 33.6972 19.1584 34.1173 18.925C34.5373 18.6916 34.9067 18.3761 35.2036 17.9972C35.5006 17.6182 35.7191 17.1834 35.8464 16.7184L36.0624 15.9948C36.8376 13.4565 38.4033 11.2354 40.529 9.65843C42.6548 8.0815 45.2282 7.2321 47.8704 7.2353C54.5376 7.2353 60 12.6714 60 19.2941C60 22.4923 58.7357 25.5595 56.4853 27.821C54.2348 30.0825 51.1826 31.3529 48 31.3529H3.6C2.64522 31.3529 1.72955 31.7341 1.05441 32.4125C0.379284 33.091 0 34.0111 0 34.9706C0 35.9301 0.379284 36.8502 1.05441 37.5287C1.72955 38.2071 2.64522 38.5882 3.6 38.5882H48C53.0922 38.5882 57.9757 36.5555 61.5764 32.9371C65.1771 29.3188 67.2 24.4112 67.2 19.2941C67.2 8.60036 58.4352 4.11094e-06 47.8704 4.11094e-06ZM81.9408 28.9412C75.8688 28.9412 70.4928 32.8965 68.5824 38.6509C68.2807 39.5618 68.3514 40.5558 68.779 41.4142C69.2066 42.2727 69.956 42.9253 70.8624 43.2285C71.7688 43.5317 72.7579 43.4606 73.6122 43.0309C74.4665 42.6012 75.1159 41.8481 75.4176 40.9373C75.8726 39.5577 76.7467 38.3563 77.9169 37.5022C79.0872 36.6481 80.4945 36.1844 81.9408 36.1765C85.728 36.1765 88.8 39.2635 88.8 43.0741V43.4118C88.8 45.3307 88.0414 47.171 86.6912 48.5279C85.3409 49.8848 83.5095 50.6471 81.6 50.6471H3.6C2.64522 50.6471 1.72955 51.0282 1.05441 51.7066C0.379284 52.3851 0 53.3053 0 54.2647C0 55.2242 0.379284 56.1443 1.05441 56.8228C1.72955 57.5012 2.64522 57.8824 3.6 57.8824H63.6C65.1913 57.8824 66.7174 58.5176 67.8426 59.6483C68.9679 60.7791 69.6 62.3127 69.6 63.9118C69.6 65.5109 68.9679 67.0445 67.8426 68.1752C66.7174 69.306 65.1913 69.9412 63.6 69.9412H62.952C61.032 69.9412 59.28 68.8511 58.416 67.1291C57.9686 66.3066 57.2211 65.6907 56.3308 65.4112C55.4405 65.1316 54.477 65.2102 53.6433 65.6304C52.8095 66.0506 52.1706 66.7795 51.8611 67.6637C51.5516 68.5479 51.5956 69.5183 51.984 70.3705C53.0056 72.4144 54.572 74.133 56.5086 75.3348C58.4452 76.5365 60.6759 77.1741 62.952 77.1765H63.6C65.8594 77.1769 68.0811 76.5945 70.0524 75.4851C72.0238 74.3756 73.6787 72.7763 74.8588 70.8401C76.0389 68.9039 76.7047 66.6957 76.7925 64.427C76.8802 62.1582 76.387 59.9047 75.36 57.8824H81.6C85.4191 57.8824 89.0818 56.3578 91.7823 53.644C94.4829 50.9303 96 47.2496 96 43.4118V43.0741C96 39.3258 94.5183 35.7311 91.8807 33.0806C89.2432 30.4302 85.6708 28.9412 81.9408 28.9412ZM14.4 4.82353C14.4 6.10281 13.8943 7.3297 12.9941 8.23428C12.0939 9.13887 10.873 9.64706 9.6 9.64706C8.32696 9.64706 7.10606 9.13887 6.20589 8.23428C5.30571 7.3297 4.8 6.10281 4.8 4.82353C4.8 3.54425 5.30571 2.31737 6.20589 1.41278C7.10606 0.508197 8.32696 4.11094e-06 9.6 4.11094e-06C10.873 4.11094e-06 12.0939 0.508197 12.9941 1.41278C13.8943 2.31737 14.4 3.54425 14.4 4.82353ZM33.6 82C34.873 82 36.0939 81.4918 36.9941 80.5872C37.8943 79.6826 38.4 78.4558 38.4 77.1765C38.4 75.8972 37.8943 74.6703 36.9941 73.7657C36.0939 72.8611 34.873 72.3529 33.6 72.3529C32.327 72.3529 31.1061 72.8611 30.2059 73.7657C29.3057 74.6703 28.8 75.8972 28.8 77.1765C28.8 78.4558 29.3057 79.6826 30.2059 80.5872C31.1061 81.4918 32.327 82 33.6 82ZM86.4 9.64706C86.4 10.9263 85.8943 12.1532 84.9941 13.0578C84.0939 13.9624 82.873 14.4706 81.6 14.4706C80.327 14.4706 79.1061 13.9624 78.2059 13.0578C77.3057 12.1532 76.8 10.9263 76.8 9.64706C76.8 8.36778 77.3057 7.1409 78.2059 6.23631C79.1061 5.33173 80.327 4.82353 81.6 4.82353C82.873 4.82353 84.0939 5.33173 84.9941 6.23631C85.8943 7.1409 86.4 8.36778 86.4 9.64706Z" fill="white"/>
</svg>
