<svg width="47" height="40" viewBox="0 0 47 40" fill="none" xmlns="http://www.w3.org/2000/svg">
<path d="M23.4365 2.00534e-06C21.3855 -0.00132659 19.3883 0.657553 17.7398 1.87941C16.0912 3.10127 14.8786 4.82137 14.2809 6.78588L14.1752 7.13883C14.1022 7.36246 14.0745 7.59846 14.0939 7.83294C14.1133 8.06743 14.1793 8.29566 14.2881 8.50422C14.3969 8.71279 14.5462 8.89746 14.7273 9.04739C14.9084 9.19732 15.1176 9.30948 15.3426 9.37726C15.5677 9.44504 15.804 9.46708 16.0376 9.44209C16.2713 9.41709 16.4976 9.34556 16.7033 9.23171C16.9089 9.11785 17.0897 8.96397 17.2351 8.77912C17.3805 8.59426 17.4875 8.38216 17.5498 8.1553L17.6555 7.80236C18.0351 6.56415 18.8016 5.48067 19.8423 4.71143C20.8831 3.9422 22.143 3.52785 23.4365 3.52941C26.7007 3.52941 29.375 6.18118 29.375 9.41177C29.375 10.9719 28.756 12.4681 27.6543 13.5712C26.5525 14.6744 25.0581 15.2941 23.5 15.2941H1.7625C1.29506 15.2941 0.846757 15.48 0.516224 15.811C0.185691 16.1419 0 16.5908 0 17.0588C0 17.5269 0.185691 17.9757 0.516224 18.3067C0.846757 18.6376 1.29506 18.8235 1.7625 18.8235H23.5C25.993 18.8235 28.384 17.8319 30.1468 16.0669C31.9096 14.3018 32.9 11.9079 32.9 9.41177C32.9 4.1953 28.6089 2.00534e-06 23.4365 2.00534e-06ZM40.1168 14.1177C37.1441 14.1177 34.5121 16.0471 33.5768 18.8541C33.4291 19.2984 33.4637 19.7833 33.673 20.2021C33.8824 20.6208 34.2493 20.9392 34.6931 21.0871C35.1368 21.235 35.6211 21.2003 36.0393 20.9907C36.4575 20.7811 36.7755 20.4137 36.9232 19.9694C37.1459 19.2964 37.5739 18.7104 38.1468 18.2937C38.7198 17.8771 39.4088 17.651 40.1168 17.6471C41.971 17.6471 43.475 19.1529 43.475 21.0118V21.1765C43.475 22.1125 43.1036 23.0103 42.4425 23.6721C41.7815 24.334 40.8849 24.7059 39.95 24.7059H1.7625C1.29506 24.7059 0.846757 24.8918 0.516224 25.2228C0.185691 25.5537 0 26.0026 0 26.4706C0 26.9386 0.185691 27.3875 0.516224 27.7184C0.846757 28.0494 1.29506 28.2353 1.7625 28.2353H31.1375C31.9166 28.2353 32.6637 28.5452 33.2146 29.0967C33.7655 29.6483 34.075 30.3964 34.075 31.1765C34.075 31.9565 33.7655 32.7046 33.2146 33.2562C32.6637 33.8078 31.9166 34.1176 31.1375 34.1176H30.8202C29.8802 34.1176 29.0225 33.5859 28.5995 32.7459C28.3805 32.3447 28.0145 32.0443 27.5786 31.9079C27.1428 31.7715 26.671 31.8099 26.2629 32.0148C25.8547 32.2198 25.5419 32.5754 25.3903 33.0067C25.2388 33.438 25.2604 33.9114 25.4505 34.3271C25.9506 35.3241 26.7175 36.1625 27.6657 36.7487C28.6138 37.3349 29.7059 37.6459 30.8202 37.6471H31.1375C32.2437 37.6473 33.3314 37.3632 34.2965 36.822C35.2616 36.2808 36.0719 35.5006 36.6496 34.5561C37.2274 33.6117 37.5534 32.5345 37.5963 31.4278C37.6393 30.3211 37.3978 29.2218 36.895 28.2353H39.95C41.8198 28.2353 43.613 27.4916 44.9351 26.1678C46.2572 24.844 47 23.0486 47 21.1765V21.0118C47 19.1833 46.2746 17.4298 44.9833 16.1369C43.692 14.844 41.943 14.1177 40.1168 14.1177ZM7.05 2.35294C7.05 2.97698 6.80241 3.57546 6.3617 4.01672C5.92099 4.45799 5.32326 4.70588 4.7 4.70588C4.07674 4.70588 3.47901 4.45799 3.0383 4.01672C2.59759 3.57546 2.35 2.97698 2.35 2.35294C2.35 1.7289 2.59759 1.13043 3.0383 0.689163C3.47901 0.247901 4.07674 2.00534e-06 4.7 2.00534e-06C5.32326 2.00534e-06 5.92099 0.247901 6.3617 0.689163C6.80241 1.13043 7.05 1.7289 7.05 2.35294ZM16.45 40C17.0733 40 17.671 39.7521 18.1117 39.3108C18.5524 38.8696 18.8 38.2711 18.8 37.6471C18.8 37.023 18.5524 36.4245 18.1117 35.9833C17.671 35.542 17.0733 35.2941 16.45 35.2941C15.8267 35.2941 15.229 35.542 14.7883 35.9833C14.3476 36.4245 14.1 37.023 14.1 37.6471C14.1 38.2711 14.3476 38.8696 14.7883 39.3108C15.229 39.7521 15.8267 40 16.45 40ZM42.3 4.70588C42.3 5.32992 42.0524 5.9284 41.6117 6.36967C41.171 6.81093 40.5733 7.05883 39.95 7.05883C39.3267 7.05883 38.729 6.81093 38.2883 6.36967C37.8476 5.9284 37.6 5.32992 37.6 4.70588C37.6 4.08185 37.8476 3.48337 38.2883 3.0421C38.729 2.60084 39.3267 2.35294 39.95 2.35294C40.5733 2.35294 41.171 2.60084 41.6117 3.0421C42.0524 3.48337 42.3 4.08185 42.3 4.70588Z" fill="black"/>
</svg>
