<svg width="194" height="194" viewBox="0 0 194 194" fill="none" xmlns="http://www.w3.org/2000/svg">
<path d="M142.765 27.4968L144.112 28.7034C145.851 30.4259 147.173 32.3435 148.079 34.456L148.382 34.2976C151.683 32.5112 155.435 31.7434 159.169 32.0903C162.902 32.4371 166.451 33.8834 169.37 36.2477L170.704 37.4664C176.77 43.4385 177.85 52.4575 173.919 59.5264L173.749 59.7945C175.367 60.5014 176.863 61.4115 178.238 62.5246L179.597 63.7312C185.663 69.7032 186.73 78.7222 182.799 85.7912L182.63 86.0593C184.247 86.7662 185.743 87.6762 187.118 88.7894L188.477 90.0082C195.841 97.2477 195.841 109.021 188.477 116.334L126.242 177.639C115.555 188.128 101.208 194 86.2681 194C71.3279 194 56.9807 188.128 46.2943 177.639L28.5821 160.088C23.3414 154.96 19.1762 148.829 16.3322 142.057C13.4881 135.286 12.0229 128.01 12.0229 120.661C12.0229 113.311 13.4881 106.035 16.3322 99.2638C19.1762 92.4921 23.3414 86.3612 28.5821 81.2329L68.6165 41.8662C72.1929 38.3816 76.9792 36.4329 81.9613 36.4329C86.9434 36.4329 91.7298 38.3816 95.3061 41.8662C96.6002 43.15 97.6678 44.5516 98.5089 46.071L98.9699 46.9973L117.531 28.7156C120.883 25.4411 125.31 23.5099 129.979 23.2854C134.649 23.061 139.239 24.5587 142.886 27.4968H142.765ZM126.387 37.4542L64.1521 98.759C58.2318 104.597 49.3515 95.8461 55.2717 90.0082L86.3287 59.4167C86.912 58.8486 87.3758 58.1686 87.6925 57.417C88.0093 56.6653 88.1725 55.8575 88.1725 55.0413C88.1725 54.2251 88.0093 53.4172 87.6925 52.6656C87.3758 51.914 86.912 51.234 86.3287 50.6659C85.1398 49.5044 83.5469 48.8546 81.8885 48.8546C80.2302 48.8546 78.6373 49.5044 77.4484 50.6659L37.414 90.0325C33.3232 94.01 30.0704 98.7732 27.8489 104.039C25.6275 109.305 24.4827 114.966 24.4827 120.685C24.4827 126.404 25.6275 132.065 27.8489 137.331C30.0704 142.597 33.3232 147.36 37.414 151.337L55.1261 168.888C63.4549 177.034 74.6198 181.592 86.2438 181.592C97.8678 181.592 109.033 177.034 117.361 168.888L179.597 107.583C180.18 107.015 180.644 106.335 180.961 105.583C181.277 104.832 181.44 104.024 181.44 103.208C181.44 102.391 181.277 101.584 180.961 100.832C180.644 100.08 180.18 99.4002 179.597 98.8321C178.408 97.6707 176.815 97.0209 175.157 97.0209C173.498 97.0209 171.905 97.6707 170.716 98.8321L144.027 125.158C138.434 130.667 130.197 123.171 134.285 117.394L135.134 116.395L170.68 81.4157C171.263 80.8476 171.727 80.1676 172.044 79.416C172.361 78.6644 172.524 77.8565 172.524 77.0403C172.524 76.2241 172.361 75.4163 172.044 74.6646C171.727 73.913 171.263 73.233 170.68 72.6649C169.491 71.5034 167.898 70.8536 166.24 70.8536C164.581 70.8536 162.989 71.5034 161.8 72.6649L126.254 107.644C120.673 113.153 112.424 105.657 116.512 99.8803L117.361 98.8809L161.763 55.1266C162.347 54.5585 162.81 53.8785 163.127 53.1268C163.444 52.3752 163.607 51.5674 163.607 50.7512C163.607 49.935 163.444 49.1271 163.127 48.3755C162.81 47.6239 162.347 46.9438 161.763 46.3757C160.575 45.2179 158.985 44.5704 157.329 44.5704C155.674 44.5704 154.083 45.2179 152.895 46.3757L108.493 90.13C102.573 95.9802 93.6926 87.2172 99.6129 81.3792L135.159 46.4001C135.742 45.832 136.206 45.152 136.522 44.4004C136.839 43.6487 137.002 42.8409 137.002 42.0247C137.002 41.2085 136.839 40.4006 136.522 39.649C136.206 38.8974 135.742 38.2174 135.159 37.6493C133.97 36.4878 132.377 35.838 130.718 35.838C129.06 35.838 127.467 36.4878 126.278 37.6493L126.387 37.4542ZM116.379 1.01264L126.909 4.53492L128.971 3.49896C132.108 1.91055 135.637 1.27444 139.127 1.66837C142.617 2.0623 145.917 3.46921 148.625 5.71714L149.959 6.93593L155.904 12.908C156.963 14.0657 157.536 15.5901 157.502 17.1622C157.469 18.7344 156.831 20.2326 155.724 21.3438C154.616 22.4549 153.124 23.0929 151.559 23.1244C149.994 23.1558 148.478 22.5783 147.327 21.5126L141.382 15.5405C140.481 14.6379 139.32 14.0427 138.064 13.8393C136.808 13.6359 135.52 13.8345 134.382 14.4071L130.075 16.5765C129.362 16.9346 128.586 17.148 127.791 17.2044C126.996 17.2609 126.197 17.1593 125.441 16.9056L112.582 12.5789C111.753 12.3005 110.874 12.2054 110.005 12.3C109.136 12.3947 108.297 12.6769 107.547 13.1273L81.9492 28.484C80.9647 29.0799 79.8319 29.3825 78.6829 29.3566C77.5338 29.3307 76.4157 28.9774 75.4588 28.3378L65.5351 21.6954C64.3689 20.9129 62.9688 20.5606 61.5731 20.6983C60.1774 20.8361 58.8724 21.4555 57.88 22.451L18.9375 61.574C16.7778 63.7292 15.0645 66.2928 13.8963 69.1168C12.7282 71.9408 12.1284 74.9694 12.1316 78.0275C12.1316 79.6437 11.4926 81.1937 10.355 82.3366C9.21744 83.4794 7.67457 84.1214 6.06582 84.1214C4.45706 84.1214 2.9142 83.4794 1.77664 82.3366C0.639075 81.1937 0 79.6437 0 78.0275C0 68.6063 3.72441 59.6239 10.3604 52.9206L49.303 13.7977C52.2714 10.81 56.1797 8.94957 60.3612 8.53393C64.5426 8.11829 68.7381 9.17316 72.2318 11.5186L78.9648 16.028L101.166 2.62144C103.424 1.26076 105.947 0.405091 108.564 0.112742C111.181 -0.179608 113.83 0.0982321 116.33 0.927328L116.379 1.01264Z" fill="black"/>
</svg>
