<svg width="153" height="153" viewBox="0 0 153 153" fill="none" xmlns="http://www.w3.org/2000/svg">
<path d="M112.532 21.5738L113.593 22.5205C114.964 23.872 116.006 25.3765 116.72 27.034L116.959 26.9097C119.561 25.5081 122.519 24.9057 125.461 25.1778C128.404 25.45 131.201 26.5847 133.502 28.4397L134.554 29.396C139.335 34.0816 140.186 41.1578 137.088 46.7041L136.954 46.9145C138.229 47.4691 139.409 48.1831 140.492 49.0564L141.563 50.0031C146.345 54.6888 147.186 61.765 144.088 67.3113L143.954 67.5216C145.229 68.0763 146.408 68.7903 147.492 69.6636L148.563 70.6199C154.367 76.3 154.367 85.5374 148.563 91.2749L99.5074 139.374C91.084 147.604 79.7752 152.211 67.9989 152.211C56.2227 152.211 44.9138 147.604 36.4905 139.374L22.5292 125.604C18.3984 121.581 15.1152 116.77 12.8735 111.457C10.6317 106.144 9.47679 100.436 9.47679 94.6696C9.47679 88.903 10.6317 83.1948 12.8735 77.8818C15.1152 72.5687 18.3984 67.7585 22.5292 63.7349L54.0855 32.848C56.9045 30.114 60.6772 28.585 64.6042 28.585C68.5313 28.585 72.304 30.114 75.123 32.848C76.143 33.8553 76.9845 34.955 77.6475 36.1471L78.0109 36.8738L92.6415 22.5301C95.2831 19.9609 98.7726 18.4457 102.453 18.2696C106.134 18.0935 109.752 19.2686 112.627 21.5738H112.532ZM99.6221 29.3864L50.5665 77.4858C45.9 82.0662 38.9002 75.2003 43.5667 70.6199L68.0467 46.618C68.5065 46.1723 68.8721 45.6387 69.1218 45.049C69.3714 44.4593 69.5 43.8255 69.5 43.1851C69.5 42.5447 69.3714 41.9108 69.1218 41.3211C68.8721 40.7314 68.5065 40.1979 68.0467 39.7521C67.1096 38.8409 65.854 38.3311 64.5469 38.3311C63.2397 38.3311 61.9841 38.8409 61.047 39.7521L29.4907 70.639C26.2663 73.7597 23.7024 77.4969 21.9513 81.6284C20.2003 85.76 19.2979 90.2014 19.2979 94.6887C19.2979 99.176 20.2003 103.617 21.9513 107.749C23.7024 111.88 26.2663 115.618 29.4907 118.738L43.452 132.508C50.0169 138.9 58.8174 142.476 67.9798 142.476C77.1422 142.476 85.9427 138.9 92.5076 132.508L141.563 84.409C142.023 83.9633 142.389 83.4297 142.638 82.84C142.888 82.2503 143.017 81.6165 143.017 80.9761C143.017 80.3357 142.888 79.7018 142.638 79.1121C142.389 78.5224 142.023 77.9889 141.563 77.5431C140.626 76.6319 139.371 76.122 138.063 76.122C136.756 76.122 135.501 76.6319 134.564 77.5431L113.526 98.1981C109.118 102.52 102.625 96.6394 105.847 92.1068L106.517 91.3227L134.535 63.8783C134.995 63.4326 135.36 62.899 135.61 62.3093C135.859 61.7196 135.988 61.0858 135.988 60.4454C135.988 59.805 135.859 59.1712 135.61 58.5814C135.36 57.9917 134.995 57.4582 134.535 57.0125C133.598 56.1012 132.342 55.5914 131.035 55.5914C129.728 55.5914 128.472 56.1012 127.535 57.0125L99.5169 84.4568C95.1182 88.7791 88.6157 82.8981 91.8382 78.3655L92.5076 77.5814L127.506 43.252C127.966 42.8063 128.332 42.2727 128.581 41.683C128.831 41.0933 128.96 40.4595 128.96 39.8191C128.96 39.1787 128.831 38.5448 128.581 37.9551C128.332 37.3654 127.966 36.8319 127.506 36.3861C126.57 35.4777 125.316 34.9697 124.011 34.9697C122.706 34.9697 121.453 35.4777 120.516 36.3861L85.5174 70.7155C80.8509 75.3055 73.8512 68.4301 78.5177 63.8496L106.536 36.4053C106.996 35.9595 107.361 35.426 107.611 34.8363C107.86 34.2466 107.989 33.6127 107.989 32.9723C107.989 32.332 107.86 31.6981 107.611 31.1084C107.361 30.5187 106.996 29.9851 106.536 29.5394C105.599 28.6281 104.343 28.1183 103.036 28.1183C101.729 28.1183 100.473 28.6281 99.5361 29.5394L99.6221 29.3864ZM91.7331 0.794514L100.033 3.55808L101.659 2.74526C104.131 1.49901 106.913 0.999919 109.664 1.309C112.415 1.61807 115.016 2.72193 117.15 4.48564L118.202 5.44189L122.888 10.1275C123.723 11.0359 124.174 12.2319 124.148 13.4654C124.121 14.6989 123.619 15.8744 122.746 16.7462C121.873 17.618 120.697 18.1186 119.463 18.1433C118.23 18.1679 117.034 17.7148 116.127 16.8786L111.441 12.193C110.731 11.4848 109.816 11.0179 108.826 10.8583C107.836 10.6987 106.821 10.8545 105.924 11.3037L102.529 13.0058C101.967 13.2868 101.355 13.4542 100.728 13.4985C100.102 13.5428 99.4722 13.4631 98.8763 13.264L88.74 9.86933C88.0866 9.6509 87.3937 9.57627 86.7087 9.65054C86.0238 9.72481 85.363 9.94623 84.7716 10.2996L64.5947 22.3484C63.8187 22.8159 62.9258 23.0534 62.0201 23.033C61.1143 23.0127 60.233 22.7355 59.4787 22.2336L51.6566 17.0221C50.7374 16.4081 49.6338 16.1317 48.5337 16.2398C47.4335 16.3479 46.4049 16.8338 45.6227 17.615L14.9271 48.3106C13.2247 50.0015 11.8742 52.0129 10.9535 54.2287C10.0327 56.4444 9.55996 58.8205 9.5625 61.22C9.5625 62.488 9.05876 63.7042 8.1621 64.6008C7.26545 65.4975 6.04932 66.0012 4.78125 66.0012C3.51318 66.0012 2.29705 65.4975 1.4004 64.6008C0.503737 63.7042 0 62.488 0 61.22C0 53.8281 2.93569 46.7806 8.16638 41.5212L38.862 10.8256C41.2018 8.48143 44.2825 7.02178 47.5784 6.69567C50.8744 6.36956 54.1813 7.19721 56.9351 9.03739L62.2423 12.5755L79.7417 2.05676C81.5215 0.989184 83.5106 0.317832 85.5733 0.0884566C87.636 -0.140919 89.724 0.0770723 91.6948 0.727576L91.7331 0.794514Z" fill="white"/>
</svg>
