<svg width="67" height="67" viewBox="0 0 67 67" fill="none" xmlns="http://www.w3.org/2000/svg">
<path d="M16.2252 19.5416C16.2252 19.5416 14.9605 21.2948 13.4447 24.1953M13.4447 24.1953C11.1918 28.514 8.375 35.3815 8.375 42.8045C16.228 42.8045 20.9375 47.4582 20.9375 47.4582C20.9375 47.4582 24.0781 61.4166 33.5 61.4166C42.9219 61.4166 46.0625 47.4582 46.0625 47.4582C46.0625 47.4582 50.7748 42.8045 58.625 42.8045C58.625 35.3815 55.8138 28.514 53.5581 24.1953M13.4447 24.1953C13.4447 24.1953 5.23437 17.9894 13.4419 5.58325C16.2252 7.13542 24.0781 13.3385 24.0781 13.3385C24.0781 13.3385 28.7905 10.237 33.5 10.237C38.2095 10.237 42.9219 13.3357 42.9219 13.3357C42.9219 13.3357 50.7748 7.13821 53.9155 5.58325C61.7656 17.9922 53.5581 24.1953 53.5581 24.1953M50.7748 19.5416C50.7748 19.5416 52.0395 21.2948 53.5581 24.1953M30.7083 50.2499H33.5M33.5 50.2499H36.2917M33.5 50.2499V53.0416M23.7292 34.8958L27.9167 39.0833M43.2708 34.8958L39.0833 39.0833" stroke="black" stroke-width="5" stroke-linecap="round" stroke-linejoin="round"/>
</svg>
