<svg width="214" height="164" viewBox="0 0 214 164" fill="none" xmlns="http://www.w3.org/2000/svg">
<path d="M194.575 114.156V163.984H178.681V114.156H194.575ZM35.3193 114.156V163.984H19.4248V114.156H35.3193ZM213.984 99.0155V108.447H0.015625V99.0155H213.984Z" fill="#D3B0E6" stroke="#D3B0E6" stroke-width="0.03125"/>
<path d="M91.6937 9.95647L102.943 20.2861C110.473 16.2277 121.075 18.5923 129.22 26.0711C134.073 30.5275 138.139 36.2807 133.192 41.6678L120.645 55.3318C119.527 56.5464 118.011 57.3193 116.372 57.5097C114.732 57.7001 113.079 57.2955 111.713 56.3693C110.347 55.4432 109.359 54.0573 108.929 52.4639C108.499 50.8705 108.655 49.1757 109.37 47.688L114.169 37.7055C110.505 41.6957 102.214 43.1193 97.4022 38.5077M66.8964 36.9517L78.15 47.2855C78.15 47.2855 77.0268 51.1936 77.1369 56.453C77.3493 66.5861 84.8665 74.7848 93.5266 80.0527C96.4131 81.8029 99.5289 83.3766 102.52 84.2975M135.508 39.8144L144.119 47.7209C145.909 49.3648 146.973 51.6524 147.076 54.0807C147.179 56.5089 146.314 58.8788 144.67 60.6689C143.026 62.4591 140.739 63.5229 138.31 63.6264C135.882 63.7299 133.512 62.8645 131.722 61.2206L123.112 53.3141" stroke="#D3B0E6" stroke-width="5" stroke-linecap="round" stroke-linejoin="round"/>
<path d="M124.883 54.9404L136.214 65.3454C137.138 66.15 137.891 67.1314 138.429 68.2317C138.966 69.3319 139.279 70.5287 139.347 71.7515C139.415 72.9744 139.237 74.1984 138.825 75.3515C138.412 76.5047 137.773 77.5635 136.944 78.4656C136.116 79.3676 135.115 80.0947 134.002 80.6039C132.888 81.1131 131.683 81.3941 130.459 81.4303C129.235 81.4666 128.016 81.2573 126.874 80.8148C125.732 80.3724 124.69 79.7058 123.81 78.8543L112.478 68.4492C110.78 66.8865 109.733 64.741 109.547 62.4407C109.36 60.1404 110.047 57.8543 111.472 56.0382" stroke="#D3B0E6" stroke-width="5" stroke-linecap="round" stroke-linejoin="round"/>
<path d="M119.312 74.725C120.235 75.5291 120.987 76.5098 121.525 77.6093C122.062 78.7088 122.374 79.9048 122.442 81.1268C122.51 82.3488 122.333 83.5721 121.921 84.7244C121.508 85.8768 120.869 86.9349 120.042 87.8364C119.214 88.7378 118.214 89.4644 117.101 89.9733C115.988 90.4821 114.784 90.7629 113.561 90.7991C112.337 90.8353 111.119 90.6262 109.978 90.184C108.836 89.7419 107.795 89.0757 106.916 88.2247L101.118 82.9006C100.195 82.0966 99.4427 81.1159 98.905 80.0164C98.3674 78.9169 98.0554 77.7209 97.9874 76.4989C97.9194 75.2768 98.0968 74.0536 98.5092 72.9013C98.9215 71.7489 99.5604 70.6908 100.388 69.7893C101.216 68.8878 102.216 68.1612 103.329 67.6524C104.442 67.1435 105.646 66.8627 106.869 66.8265C108.093 66.7903 109.311 66.9995 110.452 67.4416C111.593 67.8838 112.634 68.55 113.514 69.4009L119.312 74.725Z" stroke="#D3B0E6" stroke-width="5" stroke-linecap="round" stroke-linejoin="round"/>
</svg>
