<svg width="214" height="164" viewBox="0 0 214 164" fill="none" xmlns="http://www.w3.org/2000/svg">
<path d="M194.575 114.156V163.984H178.681V114.156H194.575ZM35.3193 114.156V163.984H19.4248V114.156H35.3193ZM213.984 99.0156V108.447H0.015625V99.0156H213.984Z" fill="white" stroke="white" stroke-width="0.03125"/>
<path d="M91.6937 9.95671L102.943 20.2863C110.473 16.228 121.075 18.5925 129.22 26.0714C134.073 30.5277 138.139 36.2809 133.192 41.668L120.645 55.3321C119.527 56.5467 118.011 57.3195 116.372 57.51C114.732 57.7004 113.079 57.2957 111.713 56.3696C110.347 55.4435 109.359 54.0575 108.929 52.4642C108.499 50.8708 108.655 49.1759 109.37 47.6883L114.169 37.7058C110.505 41.6959 102.214 43.1195 97.4022 38.5079M66.8964 36.9519L78.15 47.2857C78.15 47.2857 77.0268 51.1939 77.1369 56.4533C77.3493 66.5863 84.8665 74.785 93.5266 80.053C96.4131 81.8031 99.5289 83.3768 102.52 84.2978M135.508 39.8147L144.119 47.7211C145.909 49.365 146.973 51.6527 147.076 54.0809C147.179 56.5091 146.314 58.879 144.67 60.6692C143.026 62.4594 140.739 63.5232 138.31 63.6266C135.882 63.7301 133.512 62.8647 131.722 61.2209L123.112 53.3144" stroke="white" stroke-width="5" stroke-linecap="round" stroke-linejoin="round"/>
<path d="M124.883 54.9405L136.215 65.3455C137.138 66.1502 137.891 67.1315 138.429 68.2318C138.967 69.332 139.279 70.5288 139.347 71.7516C139.415 72.9745 139.237 74.1985 138.825 75.3517C138.412 76.5048 137.773 77.5636 136.944 78.4657C136.116 79.3678 135.116 80.0948 134.002 80.604C132.888 81.1132 131.683 81.3942 130.459 81.4305C129.235 81.4667 128.016 81.2574 126.874 80.815C125.732 80.3725 124.69 79.7059 123.81 78.8544L112.479 68.4493C110.78 66.8866 109.733 64.7412 109.547 62.4408C109.36 60.1405 110.047 57.8544 111.472 56.0383" stroke="white" stroke-width="5" stroke-linecap="round" stroke-linejoin="round"/>
<path d="M119.312 74.7253C120.235 75.5294 120.987 76.5101 121.525 77.6096C122.062 78.7091 122.374 79.9051 122.442 81.1271C122.51 82.3491 122.333 83.5723 121.921 84.7247C121.508 85.877 120.869 86.9351 120.042 87.8366C119.214 88.7381 118.214 89.4647 117.101 89.9735C115.988 90.4824 114.784 90.7632 113.561 90.7994C112.337 90.8356 111.119 90.6264 109.978 90.1843C108.836 89.7421 107.795 89.0759 106.916 88.225L101.118 82.9009C100.195 82.0968 99.4427 81.1161 98.905 80.0166C98.3674 78.9171 98.0554 77.7211 97.9874 76.4991C97.9194 75.2771 98.0968 74.0538 98.5092 72.9015C98.9215 71.7491 99.5604 70.691 100.388 69.7896C101.216 68.8881 102.216 68.1615 103.329 67.6526C104.442 67.1438 105.646 66.863 106.869 66.8268C108.093 66.7906 109.311 66.9997 110.452 67.4419C111.593 67.884 112.634 68.5502 113.514 69.4012L119.312 74.7253Z" stroke="white" stroke-width="5" stroke-linecap="round" stroke-linejoin="round"/>
</svg>
