<svg version="1.1" id="Layer_1" xmlns="http://www.w3.org/2000/svg" xmlns:xlink="http://www.w3.org/1999/xlink" x="0px" y="0px"
	 width="100%" viewBox="0 0 1280 1278" enable-background="new 0 0 1280 1278" xml:space="preserve">
<path fill="#000000" opacity="1.000000" stroke="none" 
	d="
M860.000000,1279.000000 
	C573.333313,1279.000000 287.166656,1279.000000 1.000000,1279.000000 
	C1.000000,853.000000 1.000000,427.000000 1.000000,1.000000 
	C427.666656,1.000000 854.333313,1.000000 1281.000000,1.000000 
	C1281.000000,427.000000 1281.000000,853.000000 1281.000000,1279.000000 
	C1140.833374,1279.000000 1000.666687,1279.000000 860.000000,1279.000000 
M986.923035,602.180176 
	C1026.509888,602.180176 1066.096802,602.180176 1105.820923,602.180176 
	C1105.820923,599.440430 1106.133423,597.253601 1105.772949,595.183960 
	C1101.815674,572.462280 1099.196289,549.387695 1093.467041,527.115356 
	C1070.044067,436.058502 1022.944092,359.089722 952.924744,296.264587 
	C903.954407,252.325912 847.995239,220.467926 785.380493,200.421707 
	C772.470459,196.288528 759.126221,193.511612 745.298462,189.733017 
	C715.062927,182.775574 684.427856,179.378204 653.410583,178.728287 
	C613.289490,177.887573 573.703674,181.915482 534.751526,191.401337 
	C461.444366,209.253571 396.143951,242.906403 339.289673,292.500610 
	C281.563141,342.855713 238.712311,403.815796 210.908722,475.284668 
	C197.980408,508.516815 189.326538,542.849365 184.165771,578.083618 
	C183.022202,585.891235 182.455017,593.783203 181.591629,601.926941 
	C183.380814,602.021362 184.351059,602.117310 185.321304,602.117371 
	C276.983795,602.124756 368.646332,602.105957 460.308685,602.199951 
	C463.713745,602.203430 464.600433,600.996887 465.380829,597.851379 
	C488.264221,505.619751 574.507080,446.768402 668.360596,461.437561 
	C733.443848,471.610016 779.534363,508.758575 806.769409,568.741211 
	C811.578125,579.331787 814.487305,590.784912 818.391663,602.184326 
	C819.873291,602.184326 821.696960,602.184326 823.520569,602.184326 
	C868.351868,602.184326 913.183167,602.194641 958.014465,602.175964 
	C967.342957,602.172119 976.671509,602.060974 986.923035,602.180176 
M985.050354,677.010559 
	C929.258484,677.010559 873.466614,677.010559 817.762512,677.010559 
	C798.344177,761.991455 728.453186,814.676941 653.827820,819.814941 
	C614.596130,822.516052 577.914124,813.639221 544.689697,792.345459 
	C502.121887,765.063538 475.559723,726.315430 464.190155,677.360229 
	C367.832520,677.360229 271.812958,677.360229 175.619904,677.360229 
	C177.972687,707.057678 183.161331,735.896423 191.422516,764.086243 
	C221.746307,867.560913 280.466003,951.294678 368.004364,1014.236450 
	C446.513580,1070.686157 534.715393,1098.817871 631.270264,1100.911743 
	C658.758118,1101.507935 686.097778,1099.158569 713.212280,1094.794922 
	C725.572510,1092.805786 737.730164,1089.557983 750.774536,1087.010498 
	C753.987183,1086.232300 757.237427,1085.583252 760.406982,1084.657471 
	C896.558044,1044.892578 995.995361,961.399658 1058.183838,833.910461 
	C1076.236816,796.901123 1088.357544,757.832031 1095.063232,717.163391 
	C1097.236084,703.986023 1098.947144,690.732422 1100.839844,677.717712 
	C1099.555908,677.254761 1099.251709,677.048889 1098.947876,677.049072 
	C1061.290283,677.073364 1023.632751,677.112915 985.050354,677.010559 
M746.006104,655.437988 
	C747.787659,643.644409 747.225281,631.941101 745.144653,620.209839 
	C735.014954,563.095947 678.965393,524.328430 621.503662,535.188110 
	C563.843445,546.085327 525.958984,601.328064 536.761963,658.791138 
	C549.663086,727.414673 624.188721,765.784485 686.968628,735.177246 
	C719.902588,719.120972 739.332153,692.352905 746.006104,655.437988 
z"/>
<path fill="#FFFFFF" opacity="1.000000" stroke="none" 
	d="
M749.979736,1086.881104 
	C737.730164,1089.557983 725.572510,1092.805786 713.212280,1094.794922 
	C686.097778,1099.158569 658.758118,1101.507935 631.270264,1100.911743 
	C534.715393,1098.817871 446.513580,1070.686157 368.004364,1014.236450 
	C280.466003,951.294678 221.746307,867.560913 191.422516,764.086243 
	C183.161331,735.896423 177.972687,707.057678 175.619904,677.360229 
	C271.812958,677.360229 367.832520,677.360229 464.190155,677.360229 
	C475.559723,726.315430 502.121887,765.063538 544.689697,792.345459 
	C577.914124,813.639221 614.596130,822.516052 653.827820,819.814941 
	C728.453186,814.676941 798.344177,761.991455 817.762512,677.010559 
	C873.466614,677.010559 929.258484,677.010559 985.528809,677.533813 
	C985.023926,688.769897 984.580750,699.566040 982.942749,710.177795 
	C979.714783,731.091309 976.451172,752.035583 972.058960,772.724487 
	C965.630920,803.003418 955.623962,832.248108 943.525574,860.725830 
	C933.239807,884.937012 921.175171,908.238037 907.304932,930.641357 
	C888.693481,960.702820 867.239563,988.527283 842.527954,1013.749146 
	C832.200378,1024.290039 821.250183,1034.353394 809.716064,1043.546265 
	C795.075684,1055.214722 779.570618,1065.800537 764.401917,1076.802979 
	C759.655151,1080.245972 754.790527,1083.526245 749.979736,1086.881104 
z"/>
<path fill="#FF1C1C" opacity="1.000000" stroke="none" 
	d="
M986.000000,601.999268 
	C976.671509,602.060974 967.342957,602.172119 958.014465,602.175964 
	C913.183167,602.194641 868.351868,602.184326 823.520569,602.184326 
	C821.696960,602.184326 819.873291,602.184326 818.391663,602.184326 
	C814.487305,590.784912 811.578125,579.331787 806.769409,568.741211 
	C779.534363,508.758575 733.443848,471.610016 668.360596,461.437561 
	C574.507080,446.768402 488.264221,505.619751 465.380829,597.851379 
	C464.600433,600.996887 463.713745,602.203430 460.308685,602.199951 
	C368.646332,602.105957 276.983795,602.124756 185.321304,602.117371 
	C184.351059,602.117310 183.380814,602.021362 181.591629,601.926941 
	C182.455017,593.783203 183.022202,585.891235 184.165771,578.083618 
	C189.326538,542.849365 197.980408,508.516815 210.908722,475.284668 
	C238.712311,403.815796 281.563141,342.855713 339.289673,292.500610 
	C396.143951,242.906403 461.444366,209.253571 534.751526,191.401337 
	C573.703674,181.915482 613.289490,177.887573 653.410583,178.728287 
	C684.427856,179.378204 715.062927,182.775574 745.683228,190.266418 
	C750.046387,193.367432 753.950073,196.060364 758.015442,198.481918 
	C781.169861,212.273819 802.800354,228.210464 822.621704,246.389328 
	C835.312988,258.028900 847.413818,270.448395 858.679688,283.469666 
	C871.230103,297.975494 883.151611,313.121826 894.248657,328.768280 
	C916.048157,359.504639 933.819397,392.623260 947.139465,427.841431 
	C956.099609,451.532196 963.875854,475.759491 970.573425,500.187683 
	C975.450500,517.976013 978.205444,536.408264 980.969666,554.695007 
	C983.337280,570.358643 984.374390,586.223450 986.000000,601.999268 
z"/>
<path fill="#DF1818" opacity="1.000000" stroke="none" 
	d="
M986.461548,602.089722 
	C984.374390,586.223450 983.337280,570.358643 980.969666,554.695007 
	C978.205444,536.408264 975.450500,517.976013 970.573425,500.187683 
	C963.875854,475.759491 956.099609,451.532196 947.139465,427.841431 
	C933.819397,392.623260 916.048157,359.504639 894.248657,328.768280 
	C883.151611,313.121826 871.230103,297.975494 858.679688,283.469666 
	C847.413818,270.448395 835.312988,258.028900 822.621704,246.389328 
	C802.800354,228.210464 781.169861,212.273819 758.015442,198.481918 
	C753.950073,196.060364 750.046387,193.367432 746.025024,190.454712 
	C759.126221,193.511612 772.470459,196.288528 785.380493,200.421707 
	C847.995239,220.467926 903.954407,252.325912 952.924744,296.264587 
	C1022.944092,359.089722 1070.044067,436.058502 1093.467041,527.115356 
	C1099.196289,549.387695 1101.815674,572.462280 1105.772949,595.183960 
	C1106.133423,597.253601 1105.820923,599.440430 1105.820923,602.180176 
	C1066.096802,602.180176 1026.509888,602.180176 986.461548,602.089722 
z"/>
<path fill="#DFDFDF" opacity="1.000000" stroke="none" 
	d="
M750.377197,1086.945801 
	C754.790527,1083.526245 759.655151,1080.245972 764.401917,1076.802979 
	C779.570618,1065.800537 795.075684,1055.214722 809.716064,1043.546265 
	C821.250183,1034.353394 832.200378,1024.290039 842.527954,1013.749146 
	C867.239563,988.527283 888.693481,960.702820 907.304932,930.641357 
	C921.175171,908.238037 933.239807,884.937012 943.525574,860.725830 
	C955.623962,832.248108 965.630920,803.003418 972.058960,772.724487 
	C976.451172,752.035583 979.714783,731.091309 982.942749,710.177795 
	C984.580750,699.566040 985.023926,688.769897 985.991211,677.604370 
	C1023.632751,677.112915 1061.290283,677.073364 1098.947876,677.049072 
	C1099.251709,677.048889 1099.555908,677.254761 1100.839844,677.717712 
	C1098.947144,690.732422 1097.236084,703.986023 1095.063232,717.163391 
	C1088.357544,757.832031 1076.236816,796.901123 1058.183838,833.910461 
	C995.995361,961.399658 896.558044,1044.892578 760.406982,1084.657471 
	C757.237427,1085.583252 753.987183,1086.232300 750.377197,1086.945801 
z"/>
<path fill="#FFFFFF" opacity="1.000000" stroke="none" 
	d="
M745.991943,655.879272 
	C739.332153,692.352905 719.902588,719.120972 686.968628,735.177246 
	C624.188721,765.784485 549.663086,727.414673 536.761963,658.791138 
	C525.958984,601.328064 563.843445,546.085327 621.503662,535.188110 
	C678.965393,524.328430 735.014954,563.095947 745.144653,620.209839 
	C747.225281,631.941101 747.787659,643.644409 745.991943,655.879272 
z"/>
</svg>